<svg id="Capa_1" enable-background="new 0 0 511.996 511.996" height="512" viewBox="0 0 511.996 511.996" width="512" xmlns="http://www.w3.org/2000/svg"><g><g><g fill="#fe7d43"><g><g><path d="m297.089 285.701 87.245-68.344 13.622-118.984-100.867-55.529-40.946 56.271c21.19 10.64 36.24 31.88 38.05 56.66 2.27 31.17-16.63 60.19-45.98 70.56-39 13.8-65.21 51.03-65.21 92.65v17.88c0 23.29 18.88 42.17 42.16 42.17h61.67z"/><path d="m235.421 7.83c-79.977-5.249-151.278 52.68-162.326 131.855-.981 7.036-1.48 14.223-1.48 21.362 0 23.287 18.879 42.166 42.166 42.166h61.667"/></g><path d="m286.834 419.815h-61.668c-23.287 0-42.166 18.879-42.166 42.166v.349c0 23.287 18.879 42.166 42.166 42.166h54.168"/></g><path d="m297.089 7.5h-61.668"/></g><g><g><g><g><path d="m286.834 379.032c-23.287 0-42.166-18.879-42.166-42.166v-17.885c0-41.619 26.208-78.849 65.217-92.64 29.342-10.375 48.249-39.392 45.976-70.563-2.488-34.133-30.124-61.559-64.282-63.796-36.131-2.387-68.32 23.707-73.295 59.357-.445 3.186-.67 6.453-.67 9.708 0 23.287-18.879 42.166-42.166 42.166s-42.166-18.879-42.166-42.166c0-7.139.498-14.326 1.48-21.362 11.049-79.175 82.351-137.104 162.327-131.855 75.924 4.972 137.35 65.94 142.882 141.816 5.026 68.963-36.906 133.195-101.973 156.203-5.382 1.902-8.997 7.18-8.997 13.132v17.885c-.001 23.288-18.879 42.166-42.167 42.166z" fill="#ffd15b"/></g><path d="m286.834 504.496c-23.287 0-42.166-18.879-42.166-42.166v-.349c0-23.287 18.879-42.166 42.166-42.166s42.166 18.879 42.166 42.166v.349c0 23.287-18.878 42.166-42.166 42.166z" fill="#ffd15b"/></g><g fill="#ffc344"><g><path d="m172.036 139.69c-.99 7.034-1.474 14.216-1.474 21.356 0 16.596 9.583 30.96 23.525 37.826-5.623 2.78-11.942 4.339-18.639 4.339-23.273 0-42.165-18.871-42.165-42.165 0-7.14.505-14.322 1.495-21.356 11.037-79.191 82.351-137.109 162.32-131.865 2.864.189 5.708.463 8.53.821-67.712 8.341-123.882 61.5-133.592 131.044z"/><path d="m347.161 226.336c-39.006 13.795-65.227 51.031-65.227 92.649v17.881c0 16.596 9.604 30.96 23.547 37.826-5.623 2.78-11.942 4.339-18.639 4.339-23.294 0-42.165-18.871-42.165-42.165v-17.881c0-41.617 26.2-78.853 65.227-92.649 29.338-10.383 48.23-39.385 45.956-70.555-2.127-29.317-22.809-53.685-50.252-61.373 7.393-2.085 15.227-2.949 23.252-2.422 34.161 2.232 61.794 29.654 64.279 63.795 2.273 31.17-16.64 60.172-45.978 70.555z"/></g><path d="m305.481 500.154c-5.623 2.78-11.942 4.339-18.639 4.339-23.294 0-42.165-18.871-42.165-42.165v-.358c0-23.273 18.871-42.165 42.165-42.165 6.697 0 13.016 1.559 18.639 4.339-13.943 6.887-23.547 21.251-23.547 37.826v.358c0 16.596 9.604 30.96 23.547 37.826z"/></g></g></g></g><g><path d="m447.452 149.101c-5.803-79.589-70.235-143.539-149.871-148.755-3.697-.242-72.461-.346-72.461-.346-.069 0-.127.003-.189.005-26.675.078-52.932 6.805-76.549 19.698-26.225 14.316-47.947 35.474-62.818 61.188-2.074 3.586-.849 8.174 2.737 10.248 1.183.684 2.474 1.009 3.748 1.009 2.59 0 5.109-1.343 6.499-3.747 13.494-23.332 33.211-42.534 57.021-55.532 19.678-10.742 41.38-16.759 63.526-17.725-48.043 22.464-84.016 67.999-91.76 123.505-1.03 7.38-1.552 14.916-1.552 22.397 0 13.478 5.405 25.712 14.151 34.67h-26.157c-19.111 0-34.66-15.553-34.66-34.67 0-6.782.474-13.621 1.407-20.321 1.03-7.365 2.643-14.706 4.792-21.819 1.198-3.965-1.045-8.15-5.01-9.349s-8.149 1.045-9.35 5.01c-2.372 7.85-4.151 15.952-5.289 24.084-1.029 7.388-1.551 14.923-1.551 22.395 0 27.388 22.277 49.67 49.66 49.67h61.67c.015 0 .028-.005.043-.005 27.367-.022 49.625-22.293 49.625-49.665 0-2.908.201-5.826.598-8.671 2.701-19.352 14.407-35.518 30.411-44.741 17.508 10.193 29.116 28.519 30.589 48.686 2.025 27.816-14.834 53.7-41.002 62.945-41.993 14.859-70.208 54.934-70.208 99.721v17.88c0 27.388 22.277 49.67 49.66 49.67h61.67v-.003h.002c27.386 0 49.666-22.28 49.666-49.666v-17.885c0-2.78 1.606-5.216 3.997-6.062 68.245-24.13 112.226-91.495 106.955-163.819zm-256.949 187.765v-17.88c0-38.444 24.197-72.836 60.208-85.579 32.521-11.49 53.478-43.637 50.963-78.178-1.561-21.358-12.243-41.043-28.794-54.244 5.838-1.376 11.957-1.931 18.21-1.519 30.444 1.993 55.074 26.437 57.292 56.857 2.027 27.81-14.831 53.695-40.996 62.946-41.999 14.849-70.217 54.92-70.217 99.712v17.885c0 13.478 5.404 25.712 14.15 34.669h-26.156c-19.112.001-34.66-15.552-34.66-34.669zm144.995-38.089c-8.372 2.959-13.997 11.079-13.997 20.204v17.885c0 19.115-15.551 34.666-34.666 34.666s-34.666-15.551-34.666-34.666v-17.885c0-38.447 24.199-72.835 60.217-85.57 32.521-11.499 53.475-43.647 50.957-78.179-2.759-37.845-33.399-68.254-71.269-70.734-1.702-.112-3.394-.167-5.078-.167-37.923 0-70.855 28.11-76.139 65.972-.492 3.53-.742 7.145-.742 10.743 0 19.115-15.551 34.666-34.665 34.666-19.115 0-34.666-15.551-34.666-34.666 0-6.792.474-13.629 1.407-20.325 10.51-75.314 78.32-130.391 154.408-125.407 72.21 4.729 130.631 62.714 135.892 134.877 4.781 65.602-35.104 126.704-96.993 148.586z"/><path d="m286.837 412.315c-.001 0-.001 0-.002 0h-61.668c-27.386 0-49.666 22.28-49.666 49.666v.35c0 27.386 22.28 49.666 49.666 49.666 0 0 62.969-.011 63.618-.035 4.139-.148 7.375-3.624 7.227-7.763-.147-4.14-3.595-7.384-7.764-7.227-.47.017-.94.025-1.411.025-19.117 0-34.67-15.553-34.67-34.67v-.35c0-19.112 15.553-34.66 34.67-34.66 19.111 0 34.66 15.548 34.66 34.66v.35c0 8.1-2.853 15.983-8.031 22.199-2.651 3.183-2.222 7.912.961 10.563 3.181 2.652 7.91 2.221 10.562-.96 7.421-8.906 11.508-20.2 11.508-31.801v-.35c0-27.385-22.278-49.663-49.66-49.663zm-96.336 50.015v-.35c0-19.115 15.551-34.666 34.666-34.666h26.147c-8.744 8.956-14.147 21.187-14.147 34.661v.35c0 13.478 5.404 25.712 14.149 34.67h-26.149c-19.116.001-34.666-15.55-34.666-34.665z"/></g></g></svg>