<svg xmlns="http://www.w3.org/2000/svg" width="104" height="117" fill="none" viewBox="0 0 104 117"><path fill="#FFC252" d="M46.414 2.489a11.224 11.224 0 0 1 11.172 0l40.829 23.444A11.1 11.1 0 0 1 104 35.555v46.89a11.1 11.1 0 0 1-5.585 9.622l-40.83 23.444a11.222 11.222 0 0 1-11.17 0L5.584 92.067A11.1 11.1 0 0 1 0 82.445v-46.89a11.1 11.1 0 0 1 5.586-9.622L46.414 2.49Z"/><mask id="mask0_107_7789" width="90" height="98" x="7" y="10" maskUnits="userSpaceOnUse" style="mask-type:alpha"><path fill="url(#paint0_linear_107_7789)" d="M47.166 11.258a9.918 9.918 0 0 1 9.668 0l35.332 19.806C95.157 32.741 97 35.84 97 39.194v39.613c0 3.353-1.843 6.452-4.834 8.129l-35.332 19.806a9.917 9.917 0 0 1-9.668 0L11.834 86.936C8.843 85.259 7 82.16 7 78.806V39.194c0-3.353 1.843-6.452 4.834-8.129l35.332-19.806Z"/></mask><g mask="url(#mask0_107_7789)"><path fill="#FF9901" d="M47.166 11.258a9.918 9.918 0 0 1 9.668 0l35.332 19.806C95.157 32.741 97 35.84 97 39.194v39.613c0 3.353-1.843 6.452-4.834 8.129l-35.332 19.806a9.917 9.917 0 0 1-9.668 0L11.834 86.936C8.843 85.259 7 82.16 7 78.806V39.194c0-3.353 1.843-6.452 4.834-8.129l35.332-19.806Z"/><path fill="#fff" fill-opacity=".15" fill-rule="evenodd" d="m50.927 58.842.013-.034h-.01l.005-.121-.02.126h-.007l-.006-.037.025-.09-.027.072v-.016l.027-.058-.03.048-.005-.032.013-.008-.014.005-.005-.026-8.863-56.19h-6.116l14.941 56.177-.03.021L29.45 2.481h-6.952L50.79 58.7l-.033.021L14.81 2.481H6.116L50.73 58.74l-.073.05-54.71-56.308h-1.846c-.29.28-.579.56-.867.845v7.263L50.62 58.805l-.128-.026-57.257-39.056v7.956l57.102 31.068-57.102-23.965v6.532l56.49 17.315-56.49-11.223v5.856l57.08 5.548.114.035-57.194.11v5.712l57.194-5.772-.076.031L-6.765 70.52v6.137l56.577-17.5-56.577 24.014v7.145l57.143-31.337-57.143 39.316v9.2l57.292-48.56.098-.032.022.013-53.444 55.424h9.948L50.68 58.937l.066.034-35.06 55.369h7.532l27.56-55.353.033.018-20.76 55.335h6.338L50.84 59.021l.035.021-.035-.024.005-.023.038.031-8.483 55.311h5.803l2.718-55.356.008.011-.008-.013v-.016l.012.023.002.006v-.004.001-.002l-.014-.071v-.048h.003l.022-.026h-.02Zm-.006.1.012.042-.012-.029v-.013Zm.184-.095L53.76 2.481h-5.82l3.072 56.506.084.002 2.868 55.351h5.806l-8.65-55.382-.015-.11Zm.163.11h.06l-.024.012 35.233 55.372h-7.543l-27.72-55.356-.022.013 20.904 55.343h-6.355L51.222 59.017l-.038.018.035-.024-.002-.01-.038.031.038-.036-.011-.037.03-.003.005.01.02-.01-.004-.005.022-.021.008.01-.019.016ZM108.803 3.3c-.277-.274-.554-.548-.837-.819h-2.509L51.443 58.758h-.013l-.057-.021L95.385 2.48H86.77L51.34 58.724l-.063-.027L79.128 2.481h-6.92l-20.96 56.2-.022-.013L65.772 2.481H59.68l-8.483 56.164v.015l-.017-.005.014.008-.005.034-.03-.029.027.035-.008.05-.044-.069.008.027-.016-.024.025.06h-.011l.03.066-.055.01.055-.005-.006.03.014.005h.005v.031l.014-.026V58.845l.032.01-.019-.029.055-.016.008.011-.022.037h.022l.016-.019.017.022h-.006l.02.015.013-.005-.011.01.014.016.021-.018-.01-.01h.021l.054-.027.017.016-.025.018.05.006.078.007-.035-.023.296.09h-.084l57.08 31.19V83.02L52.074 59.039l56.724 17.468v-6.13L52.142 58.956h-.27l-.103-.042.324.032-.473-.095-.054-.024.095-.052 57.134-5.867V47.03L52.153 58.616l56.642-17.692v-6.558L52.163 58.495l56.632-31.266V19.23L51.647 58.713l-.136.032 57.292-48.737V3.3Zm-.001 55.258v5.99l-56.61-5.599 56.61-.392Zm-57.42.398 43.7 55.384h9.997L51.434 58.955h-.051Zm57.421 48.328L51.56 58.955l.087-.002 57.156 39.155v9.176Z" clip-rule="evenodd"/></g><path fill="url(#paint1_linear_107_7789)" d="M31.91 91.065V69.94h36.363v21.125c0 2.44-2.536 4.053-4.746 3.02L51.503 88.46a3.333 3.333 0 0 0-2.824 0l-12.024 5.624c-2.21 1.034-4.746-.579-4.746-3.019Z"/><circle cx="51" cy="52.383" r="30" fill="#F6C7F5"/><ellipse cx="51" cy="52.213" fill="#EB7DEE" rx="23.636" ry="24.091"/><path fill="#E74BD2" d="M49.353 38.282a2.143 2.143 0 0 1 3.294 0L57 43.513c.228.275.52.487.852.62l6.32 2.524c1.243.497 1.731 2 1.017 3.133l-3.629 5.756c-.19.302-.302.646-.325 1.002l-.448 6.79a2.143 2.143 0 0 1-2.665 1.936l-6.596-1.672a2.143 2.143 0 0 0-1.054 0l-6.596 1.672a2.143 2.143 0 0 1-2.665-1.936l-.448-6.79a2.142 2.142 0 0 0-.325-1.002L36.81 49.79a2.143 2.143 0 0 1 1.018-3.133l6.32-2.524c.33-.133.623-.345.851-.62l4.354-5.23Z"/><defs><linearGradient id="paint0_linear_107_7789" x1="19.233" x2="83.721" y1="20.051" y2="110.612" gradientUnits="userSpaceOnUse"><stop stop-color="#FEE216"/><stop offset="1" stop-color="#FEAF16"/></linearGradient><linearGradient id="paint1_linear_107_7789" x1="50.091" x2="50.091" y1="69.94" y2="96.304" gradientUnits="userSpaceOnUse"><stop stop-color="#B01A62"/><stop offset="1" stop-color="#FF7BBA"/></linearGradient></defs></svg>